<svg xmlns:svg="http://www.w3.org/2000/svg" xmlns="http://www.w3.org/2000/svg" xmlns:xlink="http://www.w3.org/1999/xlink" viewBox="0 0 500 500">
  <g>
    <path fill="#FFFFFF" d="M.5 250C.5 387.6 112.4 499.5 250 499.5S499.5 387.6 499.5 250 387.6.5 250 .5.5 112.4.5 250"/>
    <path fill="#0080BA" d="M425.8 427.7c-9 3.1-33.9 9-64.2 9-88.6 0-130.6-42.1-179.4-51.1l23-103.5h113l14.9-65.5H221.5l17.6-76.4h118.4L372 73.3H161.8l-71 311c-11.8 1.4-33.9 10.8-40.2 16.3C19 358.5 0 306 0 250 0 112.1 112.1 0 250 0s250 112.1 250 250c0 69.6-28.5 132.4-74.2 177.7M250 500c51.5 0 99.5-15.8 139.2-42.5-9 2.2-19.4 3.6-30.7 3.6-112.1 0-140.6-56.5-224.7-56.5-29.8 0-52 6.8-66.4 15.8 44.3 48 110.3 79.6 182.6 79.6"/>
  </g>
</svg>
